<svg xmlns="http://www.w3.org/2000/svg" viewBox="0 0 512 512" width="512" height="512">
  <defs>
    <linearGradient id="grad" x1="0%" y1="0%" x2="100%" y2="100%">
      <stop offset="0%" style="stop-color:#00685f;stop-opacity:1" />
      <stop offset="100%" style="stop-color:#008378;stop-opacity:1" />
    </linearGradient>
  </defs>
  <rect width="512" height="512" rx="128" fill="url(#grad)" />
  <circle cx="256" cy="256" r="180" fill="none" stroke="#ffffff" stroke-width="12" stroke-opacity="0.15" />
  <path d="M256 120 L400 180 L256 240 L112 180 Z" fill="#ffffff" />
  <path d="M160 200 L160 290 C160 330, 352 330, 352 290 L352 200" fill="none" stroke="#ffffff" stroke-width="16" stroke-linecap="round" />
  <path d="M380 190 L380 320 C380 330, 390 340, 400 340" fill="none" stroke="#ffffff" stroke-width="8" stroke-linecap="round" />
  <circle cx="400" cy="345" r="12" fill="#ffffff" />
  <path d="M256 325 C256 325, 226 295, 226 275 C226 258, 239 245, 256 245 C273 245, 286 258, 286 275 C286 295, 256 325, 256 325 Z" fill="#ff4757" />
</svg>
